# xmcd CD database file
#
# Track frame offsets:
#	150
#	24848
#	49351
#	64714
#	79549
#	92962
#	122536
#	138792
#	168255
#	184677
#	201295
#	221117
#	231632
#	246271
#
# Disc length: 3489 seconds
#
# Revision: 0
# Processed by: cddbd v1.5.1PL2 Copyright (c) Steve Scherf et al.
# Submitted via: CDex 1.51
#
DISCID=c30d9f0e
DTITLE=Various Artist - Baby's Got The Blues - Disc 2
DYEAR=1900
DGENRE=Blues
TTITLE0=We Got To Go - Jimmy Dawkins
TTITLE1=It Serves You Right To Suffer - John Lee Hooker
TTITLE2=Hoodoo Man Blues - Junior Wells
TTITLE3=Done Everything I Can - King Biscuit Boy
TTITLE4=Backtrack - Little Walter
TTITLE5=Steel On My Hands - Louisiana Red
TTITLE6=When I Lay My Burden Down - Mississippi Fred McDowell
TTITLE7=Mo's Stroll - Mojo Buford
TTITLE8=Got My Mojo Working - Muddy Waters
TTITLE9=All My Money Gone - Paul DeLay
TTITLE10=Baby Wath You Want Me To Do - Roy Gaines
TTITLE11=Woman's Lover Blues - Sonny Terry
TTITLE12=Leaving In The Morning - Walter Horton
TTITLE13=Barrel House Woman - Will Ezell
EXTD=
EXTT0=
EXTT1=
EXTT2=
EXTT3=
EXTT4=
EXTT5=
EXTT6=
EXTT7=
EXTT8=
EXTT9=
EXTT10=
EXTT11=
EXTT12=
EXTT13=
PLAYORDER=
